Coordinates
version=1
nRows=26
nColumns=11
inDegrees=yes

Units are S.I. units (second, meters, Newtons, ...)
Angles are in degrees.

endheader
time	pelvis_tilt	pelvis_tx	pelvis_ty	hip_flexion_r	knee_angle_r	ankle_angle_r	hip_flexion_l	knee_angle_l	ankle_angle_l	lumbar_extension
      0.00000000	     10.32995988	      0.61213494	      1.01790250	    -29.10815989	     -5.12860733	     12.81530059	     11.53587638	     -0.62251583	     -4.61417904	    -26.13945065
      0.01666667	     10.07837430	      0.61303298	      1.01659780	    -29.10828057	     -6.95176330	     12.82380037	     12.22232385	     -2.96171734	     -5.65381238	    -25.87606155
      0.03333333	      9.78090558	      0.61456262	      1.01551839	    -28.98988200	     -8.88661482	     12.52241192	     12.77083247	     -5.23610151	     -6.55319866	    -25.45129547
      0.05000000	      9.47134096	      0.61612871	      1.01478810	    -28.55138332	    -11.40851839	     12.08208254	     13.37423991	     -7.69512731	     -7.14786344	    -25.01635156
      0.06666667	      9.55771980	      0.61844579	      1.01516096	    -28.34079025	    -14.27068674	     11.07748074	     13.49818948	    -10.33838510	     -7.10362855	    -24.89436085
      0.08333333	      9.47473463	      0.62071925	      1.01615418	    -27.47430797	    -17.89208038	      9.77809067	     13.42615397	    -12.37257297	     -6.91081600	    -24.67909458
      0.10000000	      9.63837718	      0.62331989	      1.01778759	    -26.40662175	    -22.24201951	      7.97355002	     13.08125460	    -14.62302017	     -6.04532255	    -24.68013609
      0.11666667	      9.78754006	      0.62558693	      1.02017897	    -24.84259035	    -27.15735000	      5.44324025	     12.37490319	    -16.15459269	     -5.16221752	    -24.69896145
      0.13333333	      9.58002046	      0.62704771	      1.02225863	    -22.22199995	    -32.89992812	      2.50696607	     11.82019094	    -17.16583386	     -4.20039524	    -24.39238820
      0.15000000	      9.28271220	      0.62749723	      1.02453142	    -19.02080168	    -38.96097466	     -1.04561699	     11.02117001	    -17.39381306	     -3.32387506	    -24.03907915
      0.16666667	      9.03614427	      0.62820629	      1.02699450	    -15.80758310	    -44.61994450	     -4.52936097	      9.93351291	    -17.23168474	     -2.31590657	    -23.70940664
      0.18333333	      8.56915870	      0.62689554	      1.02921058	    -12.12924512	    -50.07250438	     -6.88760787	      9.09789651	    -16.82696406	     -1.54636361	    -23.31896373
      0.20000000	      8.22811608	      0.62584770	      1.03152359	     -8.73182185	    -54.92373007	     -7.57804640	      8.09381316	    -16.41766828	     -0.70129940	    -22.92240009
      0.21666667	      7.82752111	      0.62420254	      1.03366789	     -5.32356642	    -59.27415163	     -6.57440091	      7.17726869	    -15.97896869	      0.03516065	    -22.54013706
      0.23333333	      7.66380363	      0.62336835	      1.03638462	     -2.45566140	    -62.71873112	     -4.70976293	      5.74426081	    -15.11460988	      0.62270913	    -22.39156625
      0.25000000	      7.51317957	      0.62131079	      1.03886993	      0.47597988	    -65.59097297	     -2.76512339	      4.32584928	    -14.11678646	      0.97498076	    -22.27685942
      0.26666667	      7.15582855	      0.61925647	      1.04053704	      3.46523975	    -67.65295899	     -1.12643723	      3.13530640	    -13.11302915	      1.37428983	    -21.91965525
      0.28333333	      7.07817757	      0.61723530	      1.04229956	      6.06821203	    -68.92705439	      0.08857520	      1.63882330	    -12.09039683	      1.76898876	    -21.87198561
      0.30000000	      6.91481984	      0.61511477	      1.04372461	      8.56581038	    -69.33645497	      0.95217538	      0.14701824	    -10.84408512	      1.99407251	    -21.79843769
      0.31666667	      6.66453984	      0.61188818	      1.04425214	     11.15455992	    -69.13176655	      1.63916804	     -1.08210670	     -9.81648080	      2.35060279	    -21.66421066
      0.33333333	      6.49222693	      0.60967899	      1.04502787	     13.25758300	    -67.93244176	      2.19406859	     -2.54155400	     -8.59979988	      2.55799099	    -21.55841428
      0.35000000	      6.29386377	      0.60659312	      1.04514197	     15.25070827	    -66.06975628	      2.90777303	     -3.83417232	     -7.57403802	      2.86738570	    -21.56310673
      0.36666667	      6.43745933	      0.60366039	      1.04552274	     16.56088399	    -63.37605424	      3.38609294	     -5.54993958	     -6.45295202	      3.08145367	    -21.85022369
      0.38333333	      6.49949829	      0.60119138	      1.04556015	     17.58757471	    -59.88042467	      3.74238978	     -7.16820482	     -5.41143148	      3.28610800	    -22.08597790
      0.40000000	      6.58095786	      0.59819015	      1.04501296	     18.38312067	    -55.79510487	      3.96635165	     -8.75215806	     -4.42976520	      3.56493733	    -22.34315872
      0.41666667	      6.46652973	      0.59550731	      1.04418727	     19.01998820	    -50.92524896	      3.87904725	    -10.12977187	     -3.45609436	      3.78569821	    -22.42938557
